<svg xmlns="http://www.w3.org/2000/svg" width="410" height="150" style="display:inline"><g style="display:inline"><rect width="410" height="150" ry="0" style="fill:#fff;stroke-width:1.00157"/><g style="fill:#fff"><path d="M6.701 7.61h334v25h-334zM52.349 32.61h242.703v30H52.349zM52.349 62.61h242.703v30H52.349z" style="fill:#fff;stroke:#000;stroke-width:1;stroke-linecap:round;stroke-linejoin:round;stroke-miterlimit:4;stroke-opacity:1;stroke-dasharray:none;stroke-dashoffset:0;display:inline"/><path d="M6.701 994.972h334v25h-334z" style="fill:#fff;stroke:#000;stroke-width:1;stroke-linecap:round;stroke-linejoin:round;stroke-miterlimit:4;stroke-opacity:1;stroke-dasharray:none;stroke-dashoffset:0;display:inline" transform="translate(0 -902.362)"/><path d="M6.701 117.61h334v25h-334zM6.701 32.61h45.444v60H6.701z" style="fill:#fff;stroke:#000;stroke-width:1;stroke-linecap:round;stroke-linejoin:round;stroke-miterlimit:4;stroke-opacity:1;stroke-dasharray:none;stroke-dashoffset:0;display:inline"/><path d="M295.073 32.61h45.628v60h-45.628z" style="fill:#fff;stroke:#000;stroke-width:.99999994;stroke-linecap:round;stroke-linejoin:round;stroke-miterlimit:4;stroke-opacity:1;stroke-dasharray:none;stroke-dashoffset:0;display:inline"/><path d="M52.349 32.61h60.108v30H52.349z" style="fill:#fff;stroke:#000;stroke-width:1;stroke-linecap:round;stroke-linejoin:round;stroke-miterlimit:4;stroke-opacity:1;stroke-dasharray:none;stroke-dashoffset:0;display:inline"/><path d="M52.349 32.61h60v30h-60zM112.353 32.61h60v30h-60z" style="fill:#fff;stroke:#000;stroke-width:1;stroke-linecap:round;stroke-linejoin:round;stroke-miterlimit:4;stroke-opacity:1;stroke-dasharray:none;stroke-dashoffset:0;display:inline"/><path d="M172.32 32.61h62.094v30H172.32z" style="fill:#fff;stroke:#000;stroke-width:1;stroke-linecap:round;stroke-linejoin:round;stroke-miterlimit:4;stroke-opacity:1;stroke-dasharray:none;stroke-dashoffset:0;display:inline"/><text xml:space="preserve" x="118.938" y="23.105" style="font-style:normal;font-weight:400;line-height:0%;font-family:&quot;Times New Roman&quot;;-inkscape-font-specification:&quot;Times New Roman&quot;;fill:#000;fill-opacity:1;stroke:none"><tspan x="118.938" y="23.105" style="font-size:12px;line-height:1.25">Applications/Profiles</tspan></text><text xml:space="preserve" x="12.983" y="66.66" style="font-style:normal;font-weight:400;line-height:0%;font-family:&quot;Times New Roman&quot;;-inkscape-font-specification:&quot;Times New Roman&quot;;fill:#000;fill-opacity:1;stroke:none"><tspan x="12.983" y="66.66" style="font-size:12px;line-height:1.25">Audio</tspan></text><text xml:space="preserve" x="67.845" y="45.301" style="font-style:normal;font-weight:400;line-height:0%;font-family:&quot;Times New Roman&quot;;-inkscape-font-specification:&quot;Times New Roman&quot;;fill:#000;fill-opacity:1;stroke:none"><tspan x="67.845" y="45.301" style="font-size:12px;line-height:1.25">Other</tspan></text><text xml:space="preserve" x="120.613" y="52.002" style="font-style:normal;font-weight:400;line-height:0%;font-family:&quot;Times New Roman&quot;;-inkscape-font-specification:&quot;Times New Roman&quot;;fill:#000;fill-opacity:1;stroke:none"><tspan x="120.613" y="52.002" style="font-size:12px;line-height:1.25">RFcomm</tspan></text><text xml:space="preserve" x="177.569" y="52.84" style="font-style:normal;font-weight:400;line-height:0%;font-family:&quot;Times New Roman&quot;;-inkscape-font-specification:&quot;Times New Roman&quot;;fill:#000;fill-opacity:1;stroke:none"><tspan x="177.569" y="52.84" style="font-size:12px;line-height:1.25">Telephony</tspan></text><text xml:space="preserve" x="264.259" y="43.207" style="font-style:normal;font-weight:400;line-height:0%;font-family:&quot;Times New Roman&quot;;-inkscape-font-specification:&quot;Times New Roman&quot;;text-align:center;text-anchor:middle;fill:#000;fill-opacity:1;stroke:none"><tspan x="264.259" y="43.207" style="font-size:12px;line-height:1.25">Service</tspan><tspan x="264.259" y="58.242" style="font-size:12px;line-height:1.25">discovery</tspan></text><text xml:space="preserve" x="299.019" y="64.985" style="font-style:normal;font-weight:400;line-height:0%;font-family:&quot;Times New Roman&quot;;-inkscape-font-specification:&quot;Times New Roman&quot;;fill:#000;fill-opacity:1;stroke:none"><tspan x="299.019" y="64.985" style="font-size:12px;line-height:1.25">Control</tspan></text><text xml:space="preserve" x="82.084" y="72.104" style="font-style:normal;font-weight:400;line-height:0%;font-family:&quot;Times New Roman&quot;;-inkscape-font-specification:&quot;Times New Roman&quot;;fill:#000;fill-opacity:1;stroke:none"><tspan x="82.084" y="72.104" style="font-size:12px;line-height:1.25">Logical link control adaptation protocol</tspan></text><text xml:space="preserve" x="141.657" y="88.856" style="font-style:normal;font-weight:400;line-height:0%;font-family:&quot;Times New Roman&quot;;-inkscape-font-specification:&quot;Times New Roman&quot;;fill:#000;fill-opacity:1;stroke:none"><tspan x="141.657" y="88.856" style="font-size:12px;line-height:1.25">Link manager</tspan></text><text xml:space="preserve" x="149.929" y="108.539" style="font-style:normal;font-weight:400;line-height:0%;font-family:&quot;Times New Roman&quot;;-inkscape-font-specification:&quot;Times New Roman&quot;;fill:#000;fill-opacity:1;stroke:none"><tspan x="149.929" y="108.539" style="font-size:12px;line-height:1.25">Baseband</tspan></text><text xml:space="preserve" x="140.715" y="134.505" style="font-style:normal;font-weight:400;line-height:0%;font-family:&quot;Times New Roman&quot;;-inkscape-font-specification:&quot;Times New Roman&quot;;fill:#000;fill-opacity:1;stroke:none"><tspan x="140.715" y="134.505" style="font-size:12px;line-height:1.25">Physical radio</tspan></text><text xml:space="preserve" x="70.776" y="59.54" style="font-style:normal;font-weight:400;line-height:0%;font-family:&quot;Times New Roman&quot;;-inkscape-font-specification:&quot;Times New Roman&quot;;fill:#000;fill-opacity:1;stroke:none"><tspan x="70.776" y="59.54" style="font-size:12px;line-height:1.25">LLC</tspan></text><path d="M64.18 47.919h33.922v14.658H64.18zM139.982 78.072h70.462V92.73h-70.462z" style="fill:none;stroke:#000;stroke-width:.5;stroke-linecap:round;stroke-linejoin:round;stroke-miterlimit:4;stroke-opacity:1;stroke-dasharray:none;stroke-dashoffset:0"/><path d="M341.885 7.412c1.177.085 1.831.955 2.221 2.221v9.328l3.166 1.384-3.413 1.358v10.14c-.342 1.696-1.333 1.878-2.245 2.246M341.885 36.728c1.177.084 1.831.955 2.221 2.22v9.329l3.166 1.383-3.413 1.359v10.14c-.342 1.696-1.333 1.878-2.245 2.246M341.885 65.834c1.177.085 1.831.955 2.221 2.221v14.249l3.166 1.383-3.413 1.359v15.165c-.342 1.696-1.333 1.878-2.245 2.246M341.885 105.829c1.177.085 1.831.955 2.221 2.22v14.25l3.166 1.383-3.413 1.359v15.165c-.342 1.696-1.333 1.878-2.245 2.246" style="fill:none;stroke:#000;stroke-width:.5;stroke-linecap:butt;stroke-linejoin:miter;stroke-opacity:1"/><text xml:space="preserve" x="348.018" y="14.311" style="font-style:normal;font-weight:400;line-height:0%;font-family:&quot;Times New Roman&quot;;-inkscape-font-specification:&quot;Times New Roman&quot;;fill:#000;fill-opacity:1;stroke:none"><tspan x="348.018" y="14.311" style="font-size:12px;line-height:1.25">Application</tspan><tspan x="348.018" y="29.345" style="font-size:12px;line-height:1.25">layer</tspan></text><text xml:space="preserve" x="347.913" y="44.464" style="font-style:normal;font-weight:400;line-height:0%;font-family:&quot;Times New Roman&quot;;-inkscape-font-specification:&quot;Times New Roman&quot;;fill:#000;fill-opacity:1;stroke:none"><tspan x="347.913" y="44.464" style="font-size:12px;line-height:1.25">Middleware</tspan><tspan x="347.913" y="59.498" style="font-size:12px;line-height:1.25">layer</tspan></text><text xml:space="preserve" x="347.907" y="72.104" style="font-style:normal;font-weight:400;line-height:0%;font-family:&quot;Times New Roman&quot;;-inkscape-font-specification:&quot;Times New Roman&quot;;fill:#000;fill-opacity:1;stroke:none"><tspan x="347.907" y="72.104" style="font-size:12px;line-height:1.25">Data</tspan><tspan x="347.907" y="87.138" style="font-size:12px;line-height:1.25">link</tspan><tspan x="347.907" y="102.173" style="font-size:12px;line-height:1.25">layer</tspan></text><text xml:space="preserve" x="347.913" y="119.428" style="font-style:normal;font-weight:400;line-height:0%;font-family:&quot;Times New Roman&quot;;-inkscape-font-specification:&quot;Times New Roman&quot;;fill:#000;fill-opacity:1;stroke:none"><tspan x="347.913" y="119.428" style="font-size:12px;line-height:1.25">Physical</tspan><tspan x="347.913" y="134.462" style="font-size:12px;line-height:1.25">layer</tspan></text></g></g></svg>